<svg xmlns="http://www.w3.org/2000/svg" version="1.1" xmlns:xlink="http://www.w3.org/1999/xlink" xmlns:svgjs="http://svgjs.dev/svgjs" width="1920" height="1000" preserveAspectRatio="none" viewBox="0 0 1920 1000"><g mask="url(&quot;#SvgjsMask1045&quot;)" fill="none"><rect width="1920" height="1000" x="0" y="0" fill="rgba(201, 201, 201, 1)"></rect><path d="M0,768.516C140.725,754.896,228.02,615.181,353.552,550.137C496.904,475.859,731.044,510.968,788.357,360.03C847.022,205.531,627.811,76.42,594.924,-85.537C565.019,-232.806,697.159,-405.897,608.227,-527.032C520.598,-646.393,328.52,-593.541,187.905,-639.945C40.648,-688.541,-84.742,-837.15,-236.616,-805.839C-388.368,-774.554,-462.202,-605.445,-560.478,-485.657C-655.984,-369.246,-797.458,-265.929,-803.019,-115.457C-808.548,34.159,-660.008,137.235,-588.355,268.693C-523.037,388.529,-504.464,534.749,-400.45,623.112C-289.984,716.956,-144.272,782.479,0,768.516" fill="#adadad"></path><path d="M1920 1927.1970000000001C2097.359 1922.223 2116.747 1634.254 2263.944 1535.188 2405.93 1439.629 2645.132 1516.772 2740.744 1374.821 2833.623 1236.9279999999999 2737.267 1049.874 2699.956 887.859 2665.541 738.418 2622.96 593.129 2532.253 469.48 2435.91 338.14700000000005 2319.635 216.01800000000003 2166.465 160.61699999999996 2008.575 103.50900000000001 1825.476 88.45600000000002 1672.966 158.68100000000004 1526.404 226.16700000000003 1464.019 392.78499999999997 1372.9650000000001 525.991 1292.683 643.438 1205.2150000000001 754.1759999999999 1171.4450000000002 892.374 1135.233 1040.563 1096.1860000000001 1209.459 1173.871 1340.746 1250.885 1470.901 1444.53 1461.377 1563.431 1554.8319999999999 1701.336 1663.2240000000002 1744.665 1932.114 1920 1927.1970000000001" fill="#e5e5e5"></path></g><defs><mask id="SvgjsMask1045"><rect width="1920" height="1000" fill="#ffffff"></rect></mask></defs></svg>