<svg xmlns="http://www.w3.org/2000/svg" version="1.1" xmlns:xlink="http://www.w3.org/1999/xlink" xmlns:svgjs="http://svgjs.dev/svgjs" width="1920" height="1000" preserveAspectRatio="none" viewBox="0 0 1920 1000"><g mask="url(&quot;#SvgjsMask1080&quot;)" fill="none"><rect width="1920" height="1000" x="0" y="0" fill="rgba(201, 201, 201, 1)"></rect><path d="M0,867.934C161.901,900.672,345.596,836.136,462.106,719.05C574.136,606.465,539.323,420.372,593.811,271.184C642.575,137.667,765.424,32.167,764.891,-109.975C764.333,-259.015,677.86,-390.972,590.877,-511.998C497.061,-642.532,403.403,-807.576,244.781,-833.646C85.63,-859.803,-40.706,-705.882,-187.919,-639.993C-311.458,-584.7,-442.215,-557.961,-551.024,-477.465C-682.855,-379.937,-872.128,-290.472,-881.667,-126.765C-891.384,39.989,-696.813,139.41,-594.67,271.577C-517.771,371.08,-444.611,464.611,-355.815,553.659C-241.768,668.03,-158.312,835.922,0,867.934" fill="#adadad"></path><path d="M1920 1554.272C2025.563 1532.833 2126.777 1516.8310000000001 2227.343 1478.2350000000001 2352.535 1430.187 2520.4210000000003 1421.565 2579.4719999999998 1301.171 2638.2799999999997 1181.275 2538.844 1044.823 2503.026 916.174 2472.033 804.8530000000001 2456.536 687.908 2383.744 598.163 2309.608 506.761 2204.318 448.99199999999996 2093.035 410.696 1977.815 371.04499999999996 1856.358 352.869 1736.62 375.466 1608.671 399.61199999999997 1457.354 430.00699999999995 1392.482 542.903 1327.0520000000001 656.771 1422.865 796.711 1419.132 927.986 1415.984 1038.6779999999999 1356.3809999999999 1140.517 1372.3719999999998 1250.093 1392.03 1384.79 1401.3890000000001 1555.711 1520.388 1621.809 1640.9279999999999 1688.762 1784.872 1581.7150000000001 1920 1554.272" fill="#e5e5e5"></path></g><defs><mask id="SvgjsMask1080"><rect width="1920" height="1000" fill="#ffffff"></rect></mask></defs></svg>