<?xml version="1.0" standalone="no"?>
<!DOCTYPE svg PUBLIC "-//W3C//DTD SVG 20010904//EN"
 "http://www.w3.org/TR/2001/REC-SVG-20010904/DTD/svg10.dtd">
<svg version="1.0" xmlns="http://www.w3.org/2000/svg"
 width="900.000000pt" height="900.000000pt" viewBox="0 0 900.000000 900.000000"
 preserveAspectRatio="xMidYMid meet">

<g transform="translate(0.000000,900.000000) scale(0.100000,-0.100000)"
fill="#000000" stroke="none">
<path d="M2113 8168 c-6 -7 -50 -128 -98 -268 -47 -140 -141 -412 -207 -605
-66 -192 -148 -433 -183 -535 -35 -102 -88 -257 -118 -345 -30 -88 -96 -280
-146 -426 l-91 -266 0 -157 0 -156 549 0 c302 0 556 -3 565 -6 14 -5 16 -45
16 -340 l0 -334 23 -5 c12 -3 139 -4 282 -3 l260 3 3 332 c3 385 -7 355 115
353 40 -1 78 -1 85 -1 10 1 12 48 10 219 l-3 217 -640 3 c-357 1 -643 6 -648
11 -10 10 -3 30 393 1231 343 1039 350 1060 350 1076 0 19 -502 21 -517 2z"/>
<path d="M6346 8171 c-3 -5 -19 -49 -35 -97 -16 -49 -71 -208 -121 -354 -129
-375 -195 -567 -240 -700 -21 -63 -71 -207 -110 -320 -39 -113 -89 -257 -110
-320 -38 -113 -182 -531 -214 -620 -12 -34 -16 -83 -16 -197 l0 -153 543 -1
c298 -1 549 -1 558 0 36 4 39 -19 41 -355 l3 -329 280 0 280 0 3 336 2 337 26
6 c15 4 58 6 96 5 38 -1 73 2 79 8 6 6 8 92 7 219 l-3 209 -647 3 c-628 2
-648 3 -648 21 0 10 51 174 114 362 419 1267 636 1929 636 1940 0 12 -517 12
-524 0z"/>
<path d="M3930 5871 c-230 -21 -325 -98 -365 -297 -14 -70 -15 -228 -13 -1464
l3 -1385 23 -64 c47 -130 109 -186 247 -223 38 -10 165 -13 540 -13 447 0 495
2 550 18 115 35 184 106 222 225 17 54 18 132 18 1477 0 1321 -1 1424 -17
1476 -40 127 -122 204 -250 235 -62 14 -134 17 -473 20 -220 1 -438 -1 -485
-5z m601 -431 c51 -28 49 24 49 -1288 0 -824 -3 -1229 -10 -1249 -18 -50 -46
-58 -215 -58 -166 0 -197 8 -219 55 -13 28 -23 2206 -11 2389 7 97 9 107 35
133 l28 28 162 0 c91 0 170 -4 181 -10z"/>
<path d="M4000 2085 c-175 -20 -300 -43 -465 -85 -193 -51 -187 -49 -348 -109
-340 -128 -673 -333 -915 -563 l-62 -60 42 -47 c111 -123 310 -321 321 -321 8
0 24 12 38 26 90 96 343 272 532 368 325 167 658 252 1067 275 519 29 1052
-99 1480 -357 136 -82 314 -216 379 -286 14 -14 32 -26 40 -26 14 0 334 322
354 357 9 15 -30 58 -137 148 -67 58 -308 235 -318 235 -4 0 -31 15 -60 34
-126 80 -429 217 -608 274 -218 70 -441 114 -712 142 -129 13 -485 10 -628 -5z"/>
</g>
</svg>
